<?xml version="1.0" encoding="UTF-8" standalone="no"?>
<!-- Created with Inkscape (http://www.inkscape.org/) -->

<svg
   version="1.1"
   id="svg1"
   width="1024"
   height="576"
   viewBox="0 0 1024 576"
   xmlns="http://www.w3.org/2000/svg"
   xmlns:svg="http://www.w3.org/2000/svg">
  <defs
     id="defs1" />
  <g
     id="g1">
    <path
       style="fill:#000000"
       d="m 263.5,482.53089 -22,0.3402 -6.5,-0.89835 -6.5,-0.89836 -10,-2.13157 -10,-2.13156 -10.5,-3.49297 -10.5,-3.49296 -12,-5.76427 -12,-5.76427 -10.58336,-7.02176 -10.58335,-7.02175 -10.41665,-8.95992 -10.41664,-8.95992 -6.23283,-6.68495 -6.23284,-6.68495 -7.40752,-9.23177 -7.407516,-9.23176 -6.15554,-9.5 -6.155541,-9.5 -6.420979,-13 -6.42098,-13 -3.967657,-12 -3.967657,-12 -1.512616,-7.5 -1.512616,-7.5 -1.052854,-8.47377 L 56,293.55247 V 284.5 275.44753 l 1.024319,-8.47376 1.024319,-8.47377 1.576524,-8 1.576524,-8 2.994558,-9.5 2.994558,-9.5 4.532623,-10.5 4.532624,-10.5 4.512084,-8 4.512085,-8 5.95941,-8.73574 5.95941,-8.73574 9.372652,-10.90589 9.37266,-10.90588 8.9339,-7.72119 8.9339,-7.72118 7.58836,-5.63821 7.58837,-5.63821 11.88025,-6.75837 11.88025,-6.75837 10.43041,-4.36995 10.4304,-4.369951 L 206.0551,94.678163 218.5,91.115008 224,90.080014 229.5,89.04502 239.85595,88.02251 250.21191,87 h 8.43346 8.43346 l 9.71058,1.057763 9.71059,1.057763 9.82453,1.976361 9.82454,1.976361 11.98589,3.935816 11.9859,3.935816 13.18957,6.3538 13.18957,6.35379 8.5,5.33129 8.5,5.33128 8,6.05045 8,6.05045 11.3687,11.04453 11.3687,11.04453 6.31951,8.06457 6.31951,8.06457 6.64988,10.43543 6.64988,10.43543 5.37311,11.03117 5.3731,11.03117 4.02327,12.03327 4.02328,12.03327 2.05378,9.93556 2.05379,9.93556 0.93137,9.67889 0.93138,9.6789 -0.92526,12.94628 -0.92525,12.94627 -2.10858,10.37483 -2.10857,10.37483 -3.54501,10.5 -3.54502,10.5 -6.78491,14 -6.78491,14 -6.70507,10 -6.70507,10 -7.46322,9.28803 -7.46323,9.28802 -9.17408,9.11314 -9.17409,9.11313 -7.99226,6.45284 -7.99227,6.45284 -9.52123,6.26861 -9.52123,6.2686 -9,4.49126 -9,4.49126 -9.0792,3.57123 -9.0792,3.57124 -8.4208,2.15285 -8.4208,2.15285 -8,1.50739 -8,1.50739 z m 6.5,-27.69069 11.5,-0.65979 9.5,-1.63361 9.5,-1.6336 9,-2.42693 9,-2.42694 10.11909,-3.95117 10.11908,-3.95116 7.37269,-3.71283 7.37269,-3.71282 9.44105,-5.94791 9.44106,-5.94792 6.06717,-4.6412 6.06717,-4.64121 9.87302,-9.52655 9.87303,-9.52656 5.81186,-7.09171 5.81187,-7.0917 6.73226,-9.9083 6.73227,-9.90829 5.283,-11 5.28299,-11 2.99682,-10.5 2.99683,-10.5 1.29647,-7 1.29647,-7 -0.0189,-16.5 -0.0189,-16.5 -1.76056,-8.7699 -1.76056,-8.76991 -2.99243,-9.23009 -2.99243,-9.2301 -5.40523,-11.08525 -5.40522,-11.08524 -5.99454,-8.91476 -5.99454,-8.91475 -8.08756,-9.23427 -8.08757,-9.23426 -9.23426,-8.09635 -9.23427,-8.09635 -11,-7.35939 -11,-7.3594 -12.5,-5.9966 -12.5,-5.99659 -10.5,-3.62394 -10.5,-3.62393 -8.11161,-1.89816 -8.11161,-1.89816 -6.88839,-1.11309 -6.88839,-1.11309 -13,-0.82549 -13,-0.82549 -12.5,0.96005 -12.5,0.96006 -12,2.33664 -12,2.33663 -12.5,4.08634 -12.5,4.08634 -13.24633,6.46343 -13.24633,6.46343 -7.25367,4.69208 -7.25367,4.69209 -8.15854,6.37032 -8.15854,6.37032 -7.99292,8.23842 -7.99291,8.23841 -4.03941,4.74249 -4.0394,4.74249 -6.524617,9.80074 -6.524613,9.80073 -4.488037,9.47434 -4.488036,9.47434 -3.102603,9.48243 L 73.887772,247.5 71.943886,258.84937 70,270.19875 l 0.01832,12.65062 0.01832,12.65063 1.448332,10 1.448331,10 2.021094,7.19312 2.021094,7.19312 3.010247,7.57786 3.010247,7.57786 3.398501,6.72902 3.3985,6.72902 5.929051,9 5.929053,9 5.31788,6.5 5.31789,6.5 6.60657,6.82873 6.60657,6.82873 7.5,6.22288 7.5,6.22288 6.5,4.53756 6.5,4.53756 7.28793,4.22709 7.28792,4.22709 11.11687,4.95335 11.11687,4.95335 11.09521,3.44704 11.0952,3.44704 11.14579,2.08774 11.14579,2.08773 11.85421,0.69562 L 258.5,455.5 Z M 171.5,401 H 142 l -2,-2 -2,-2 v -2.67311 -2.67311 l 8.38416,-8.07689 8.38416,-8.07689 1.79169,-3.5 1.7917,-3.5 0.44955,-8.25 0.44954,-8.25 h 0.67203 0.67203 l 11.9504,4.33062 11.9504,4.33062 0.75068,5.21615 0.75067,5.21615 1.46022,2.82376 1.46023,2.82376 4.74686,4.37947 4.74686,4.37947 3.29441,3.15 L 205,391.8 v 2.6 2.6 l -2,2 -2,2 z m 83.85612,0 h -18.399 l -0.98012,-2.25 -0.98013,-2.25 -7.49551,-34.5 -7.4955,-34.5 -0.003,-1.62089 -0.003,-1.6209 4.75,0.89938 4.75,0.89938 13,1.49567 13,1.49568 1.17465,0.41554 1.17464,0.41554 1.27036,7.5603 L 260.39,345 h 0.805 0.805 v -2.05087 -2.05087 l 3.43955,-13.69913 3.43954,-13.69913 3.61288,-17 3.61287,-17 1.57936,-5.75 1.57935,-5.75 1.11823,0.004 1.11822,0.004 3.5,2.10125 3.5,2.10126 2.38235,2.145 2.38234,2.14501 2.35789,5 2.35788,5 0.01,5.89009 0.01,5.89009 -5.08179,24.10991 -5.08179,24.10991 -2.29053,10.5 -2.29053,10.5 -3.61323,15.38012 -3.61322,15.38012 -1.1369,1.36988 -1.1369,1.36988 z m 87.17137,-0.0304 -30.02749,-0.0304 -1.75,-1.01928 -1.75,-1.01928 v -2.04602 -2.04602 l 1.63069,-2.65429 1.63069,-2.65429 4.69624,-4 4.69623,-4 2.64076,-3.61482 2.64075,-3.61481 1.23998,-4.88519 1.23998,-4.88518 0.0635,-0.18781 0.0635,-0.18781 13.18298,-3.44139 13.18299,-3.4414 0.54587,0.54587 0.54587,0.54587 v 4.63699 4.63699 l 2.62179,5.26124 2.62178,5.26124 6.12822,5.032 6.12821,5.03199 1.25,1.59424 1.25,1.59424 v 3.25217 3.25216 l -2.22251,1.55671 -2.2225,1.5567 z M 290.75,365.98168 288,366 l 0.0263,-2.75 0.0263,-2.75 2.3644,-9.66859 2.36439,-9.66858 0.58123,-0.94044 0.58122,-0.94044 6.77811,-0.68632 6.77811,-0.68632 16.07777,-3.44926 16.07778,-3.44926 5.42222,-1.89904 5.42223,-1.89905 6.55116,-2.97531 6.55115,-2.97531 7.94885,-4.79992 7.94884,-4.79991 4.10299,-3.33113 L 387.70598,305 h 0.71582 0.71582 l -0.31881,15.89807 -0.31881,15.89807 -1.82585,2.01448 -1.82585,2.01449 -8.17415,3.97328 -8.17415,3.97329 -8.81998,3.11074 -8.81998,3.11073 -7.74565,1.97764 -7.74565,1.97764 -10.46561,2.01966 -10.46561,2.01965 -10.46876,1.48781 -10.46876,1.48781 z m -67.93261,-1.13151 -2.31739,-0.14983 -3,-0.39018 -3,-0.39018 -10.5,-2.05205 -10.5,-2.05205 -13.47304,-4.4786 -13.47304,-4.47859 -9.97025,-5.12137 -9.97025,-5.12137 -7.66569,-5.77627 -7.66569,-5.77627 -4.91287,-5.9989 -4.91286,-5.99889 -3.74252,-6.92903 -3.74253,-6.92902 -1.98563,-7.76375 L 110,287.68007 V 277.5 267.31993 l 1.972,-7.71045 1.972,-7.71044 3.64023,-6.92738 3.64024,-6.92738 6.00656,-6.55511 6.00657,-6.55511 5.6312,-4.32451 5.6312,-4.32451 5.75,-3.23798 5.75,-3.23798 v 16.24176 16.24175 l -4.55183,4.86627 -4.55182,4.86627 -2.38665,5.15133 -2.38665,5.15133 -1.23191,6.89337 -1.23191,6.89336 1.17428,7.69274 1.17429,7.69274 3.2461,6.47196 3.2461,6.47196 7.01389,7.02804 7.01388,7.02804 6.48612,3.76901 6.48611,3.769 7.5,2.88539 7.5,2.88539 12,2.61573 12,2.61574 2.17345,0.47971 2.17345,0.47971 2.66204,11.75016 2.66204,11.75016 0.4819,1.75 0.4819,1.75 z M 330.25,329.9676 329,330 V 282.98095 235.9619 l 2.75,0.60886 2.75,0.60886 3.5,1.03288 3.5,1.03287 7.76181,2.95456 7.76181,2.95455 -0.26181,38.1487 -0.26181,38.1487 -12.5,4.24166 -12.5,4.24166 z M 185,307.77654 l -0.5,17.90082 -6.40573,-2.86203 -6.40573,-2.86203 -6.34427,-4.52717 L 159,310.89895 v -54.48159 -54.4816 l -1.55305,-3.71788 -1.55305,-3.71788 -2.69695,-2.824 -2.69695,-2.824 -5.72007,-3.48022 -5.72007,-3.48023 -2.02993,-2.58063 L 135,176.73028 v -4.19082 -4.19083 l 2.58056,-2.42432 2.58057,-2.42431 h 39.88372 39.88372 l 1.65846,1.65845 1.65845,1.65846 1.38374,5.33444 1.38373,5.33445 1.1896,8.22769 1.18961,8.22769 -0.59774,0.59773 -0.59773,0.59773 -7.34835,0.9787 -7.34834,0.97869 -13.75,2.56355 -13.75,2.56356 v 31.80764 31.80765 l -0.60699,1.58178 -0.60699,1.58179 0.85699,-0.008 0.85699,-0.008 2.2042,-3.86084 2.20419,-3.86083 4.96894,-4.16022 4.96893,-4.16023 1.12037,5.77876 1.12037,5.77876 2.56367,8.5 2.56366,8.5 1.47765,2.86436 1.47766,2.86436 3.9177,4.25021 3.91771,4.25021 5.98141,2.6843 5.98142,2.6843 6.76606,1.43376 6.76606,1.43377 11.75,0.0174 L 267,304 v 0.65154 0.65155 l -2.16036,10.29585 -2.16035,10.29586 -6.58965,-0.50996 -6.58964,-0.50997 -9,-0.97924 -9,-0.97924 -7,-2.0566 -7,-2.0566 -6.82128,-3.56292 -6.82127,-3.56291 -4.92754,-4.43028 -4.92753,-4.43028 -4.25119,-6.47055 L 185.5,289.87571 Z M 301.31777,308 h -1.34141 l 0.76182,-4.25 0.76182,-4.25 -0.0581,-7.09767 -0.0581,-7.09767 -2.74803,-5.61677 -2.74803,-5.61677 -4.5727,-4.02505 -4.57271,-4.02506 -5.13859,-2.51408 -5.13859,-2.51407 -6.98255,-1.46278 -6.98256,-1.46278 -8.25,-0.67117 -8.25,-0.67117 v -0.40464 -0.40464 l -1.52388,-7.70784 -1.52389,-7.70784 -0.49517,-2.25 -0.49516,-2.25 8.76905,0.006 8.76905,0.006 9.5,1.4523 9.5,1.45229 5.5,1.65417 5.5,1.65416 6.33551,3.08835 6.33551,3.08836 6.65424,5.5887 6.65423,5.58869 3.26026,6.29797 3.26025,6.29796 v 5.27828 5.27827 l -3.5497,7.09542 -3.54969,7.09543 -6.12072,5.53893 L 302.65917,308 Z m -55.06777,-7.08505 -4.75,-0.085 -5,-1.23516 -5,-1.23515 -5,-2.22915 -5,-2.22915 -3.83242,-3.70065 -3.83242,-3.70065 -1.39301,-2.65283 -1.39301,-2.65283 -3.93607,-15.84717 -3.93608,-15.84717 -1.77461,-7.76388 -1.77461,-7.76389 0.93611,-0.86888 0.93612,-0.86889 11.0457,-2.13578 11.0457,-2.13577 6.7043,-0.62606 6.7043,-0.62606 v 0.59162 0.59161 l 4.40851,22.30299 4.40851,22.30299 2.59149,13.59189 L 251,299.68378 V 300.34189 301 Z m 142.52802,-53.5421 -0.27802,14.82334 -4.5,-3.91659 -4.5,-3.9166 -4.5,-3.05057 -4.5,-3.05056 -8.07659,-4.05491 -8.07659,-4.0549 -10.80292,-3.61436 -10.80293,-3.61436 -4.86149,-1.04261 -4.86149,-1.0426 -0.40954,-0.66906 -0.40954,-0.66907 2.02883,-12.75 2.02883,-12.75 1.62172,0.003 1.62171,0.003 9,2.4177 9,2.41769 11,3.93127 11,3.93126 4.5,2.28537 4.5,2.28536 4.10815,2.8136 4.10816,2.81361 1.16987,2.82431 1.16987,2.82431 z M 314,252.93214 l -0.5,-0.066 -4.5,-3.41572 -4.5,-3.41572 -8.5,-4.19056 -8.5,-4.19056 -0.21547,-0.12559 -0.21548,-0.12559 6.9224,-34.14579 6.9224,-34.14579 1.23918,-1.98423 1.23918,-1.98424 2.35095,-1.07117 L 308.09411,163 h 33.30372 33.30372 l 3.08324,1.07482 3.08324,1.07483 1.56599,2.38999 1.56598,2.38999 v 2.16715 2.16715 l -2.03465,3.29213 -2.03465,3.29213 -5.71535,3.22107 -5.71535,3.22107 -3.20112,2.43624 -3.20112,2.43624 -2.54888,5.11494 L 357,202.39269 v 2.24464 2.24464 l -0.9518,0.58824 -0.9518,0.58825 -13.12283,-4.02923 L 328.85074,200 h -2.35798 -2.35798 l -0.4696,1.75 -0.46959,1.75 -4.34779,24.74908 -4.3478,24.74908 z M 191.57955,230.56939 189,231.21682 v -12.57323 -12.57322 l 1.77315,-0.94896 1.77315,-0.94896 11.47685,-2.05303 11.47685,-2.05304 14.5,-1.64075 14.5,-1.64076 22.23336,0.39093 22.23337,0.39093 1.11711,1.11711 1.1171,1.1171 -2.64365,12.30938 -2.64365,12.30937 -0.37601,0.37602 -0.37602,0.37601 -8.8308,-1.08304 -8.83081,-1.08305 -15.02986,-0.003 -15.02986,-0.003 -12.10095,1.49813 -12.10096,1.49812 -9.53964,1.96286 -9.53964,1.96286 z m 353.75793,236.80331 -5.83748,0.49181 -4.97172,-0.88107 -4.97172,-0.88108 -4.52828,-1.70026 -4.52828,-1.70026 -5.26229,-3.45632 -5.2623,-3.45631 -3.57655,-4.14461 -3.57656,-4.1446 -2.41829,-4.73084 -2.41829,-4.73085 -1.47808,-6.26915 -1.47808,-6.26916 -0.0148,-4.70078 -0.0148,-4.70078 1.10508,-5.29922 1.10509,-5.29922 2.95309,-6.26487 2.9531,-6.26488 5.37004,-5.50033 5.37004,-5.50032 7.81016,-3.70903 7.81015,-3.70903 9.70665,-0.38987 9.70665,-0.38987 6.84207,2.07822 6.84207,2.07821 5.61853,4.02334 5.61852,4.02333 3.69388,5.03207 3.69388,5.03207 -0.48308,1.25889 -0.48308,1.25888 -8.31982,3.17601 -8.31981,3.17602 -4.04661,-4.07806 -4.0466,-4.07806 -4.5,-2.08761 -4.5,-2.08761 -6,0.0413 -6,0.0413 -4.5,2.04407 -4.5,2.04407 -3.38964,3.37585 -3.38963,3.37584 -2.05579,4.5 -2.05578,4.5 -0.0353,8 -0.0352,8 2.69068,5.13785 2.69068,5.13785 4.26314,3.64909 4.26313,3.64908 5.45187,1.58491 5.45188,1.5849 5.19737,-0.53642 5.19737,-0.53641 4.37761,-2.22485 4.3776,-2.22485 3.03984,-3.20894 3.03984,-3.20895 8.46016,3.23596 8.46016,3.23595 -0.12081,1.50394 -0.12081,1.50393 -2.87919,3.67256 -2.87919,3.67257 -5.82746,4.41966 -5.82746,4.41966 -6.33506,1.9567 -6.33507,1.9567 z M 635,467.8705 l -1.5,-0.11438 -5.84496,-0.85396 -5.84496,-0.85396 -7.15504,-3.46868 -7.15504,-3.46868 -3.64199,-3.03919 -3.642,-3.0392 -3.6623,-5.5175 -3.66231,-5.5175 -1.97288,-5.73426 -1.97287,-5.73427 -0.12465,-8.51446 -0.12465,-8.51446 1.63374,-5.59168 1.63373,-5.59168 2.72729,-4.90832 2.72729,-4.90832 5.05385,-5.07827 5.05385,-5.07826 7.48695,-3.68237 7.48695,-3.68236 7,-0.86014 7,-0.86014 5.5,0.80794 5.5,0.80793 3.05842,0.93808 3.05842,0.93809 3.44158,1.74114 3.44158,1.74114 5.12675,3.82295 5.12676,3.82296 4.11397,6.16072 4.11397,6.16072 2.00928,6.50527 2.00927,6.50527 v 7.28933 7.28933 l -2.00927,6.50527 -2.00928,6.50527 -4.11397,6.16072 -4.11397,6.16072 -5.15864,3.89481 -5.15864,3.89482 -5.46812,2.49204 -5.46811,2.49205 -6.5,1.04493 -6.5,1.04493 z m 2.78508,-19.32192 7.28509,-0.39966 4.32776,-2.53624 4.32777,-2.53623 3.26224,-3.7155 3.26225,-3.7155 1.55071,-3.57272 1.55071,-3.57273 0.0742,-7.5 0.0742,-7.5 -2.81356,-5.72959 -2.81357,-5.72959 -3.65475,-3.01256 -3.65475,-3.01255 -5.03169,-1.70993 -5.03168,-1.70993 -5.5,0.0421 -5.5,0.0421 -5,2.21361 -5,2.21361 -2.84325,2.69638 -2.84324,2.69639 -2.64273,5 -2.64272,5 -0.014,8.5 -0.014,8.5 3.08414,5.5 3.08414,5.5 4.78057,3.25113 4.78057,3.25113 3.13529,0.97299 3.13529,0.97299 z M 722.5,466 H 695 V 420.5 375 h 9.5 9.5 v 36.5 36.5 h 18 18 v 9 9 z M 769.56426,465.78621 760,466.07242 V 420.53621 375 h 9.27248 9.27248 l 17.97752,26.47123 17.97752,26.47123 0.5,0.0293 0.5,0.0293 -0.24542,-26.50055 L 815.00916,375 h 10.0459 10.0459 l -0.48589,5.25 -0.48589,5.25 -0.0646,40.29044 L 834,466.08088 825.75,465.79044 817.5,465.5 806.79723,450 l -10.70277,-15.5 -7.6716,-11.26784 -7.67159,-11.26785 -0.90529,-0.5595 -0.9053,-0.5595 0.0939,27.32734 0.0939,27.32735 z M 877.44098,466 H 850 V 420.5 375 h 27.5 27.5 v 9 9 h -18 -18 v 9 9 h 16 16 v 9 9 h -16 -16 v 9.5 9.5 h 17.89411 17.89412 l 0.43171,8.25 0.4317,8.25 -0.38483,0.75 -0.38484,0.75 z m -334.2421,-109.32812 -10.69888,0.3172 -4,-1.33182 -4,-1.33182 -5.44634,-2.77906 -5.44634,-2.77906 -5.60878,-5.63366 -5.60879,-5.63366 -2.28695,-4.75593 -2.28695,-4.75593 -1.39606,-5.24407 -1.39605,-5.24407 -0.0119,-6.5399 -0.0119,-6.5399 1.54234,-5.9601 1.54235,-5.9601 3.20765,-5.39684 3.20766,-5.39683 4.91276,-4.87976 4.91276,-4.87976 6.11591,-2.91886 6.11592,-2.91886 6.58858,-1.05253 6.58858,-1.05253 5.88275,0.61923 5.88274,0.61924 4.5,1.48305 4.5,1.48305 5.5,3.32577 5.5,3.32578 3.13168,3.31992 3.13168,3.31993 2.43843,4 2.43843,4 1.68993,4.29533 1.68993,4.29532 0.96202,6.78314 0.96202,6.78313 -1.01617,6.42154 -1.01617,6.42154 -2.92095,6.2876 -2.92095,6.28761 -5.72434,6.00138 -5.72435,6.00137 -7.36171,3.63836 -7.36171,3.63836 z m -2.06371,-17.77424 3.63516,0.10236 5.36484,-1.72188 5.36483,-1.72188 4.6911,-4.6716 4.6911,-4.6716 1.68154,-5.7843 1.68154,-5.7843 -0.48898,-6.0917 -0.48899,-6.09171 -2.61908,-5.16851 -2.61908,-5.1685 -3.45549,-2.63563 -3.45549,-2.63564 -5.06981,-1.92637 L 544.97855,283 h -4.82955 -4.82956 l -6.17368,3.08503 -6.17368,3.08502 -2.36799,3.16498 -2.36798,3.16497 -1.74965,3.45481 -1.74965,3.45482 -0.4964,6.18415 -0.4964,6.18415 1.73346,5.51114 1.73347,5.51115 2.99126,3.62891 2.99125,3.62891 4.15328,2.13503 4.15327,2.13503 3,0.73359 3,0.73359 z M 608.5,356 H 599 V 311.5 267 h 28 28 v 9 9 H 636.5 618 v 9 9 h 16 16 v 9 9 h -16 -16 v 17.5 17.5 z m 52,-112.72276 -4,0.41772 -6,-0.67955 -6,-0.67955 -4,-1.30445 -4,-1.30445 -4.91733,-2.46512 -4.91732,-2.46511 -5.42882,-5.13435 -5.42881,-5.13435 -2.3992,-4.09392 -2.3992,-4.09392 -2.00466,-5.82665 L 607,204.6869 v -9.375 -9.37499 l 2.0778,-6.21846 2.07779,-6.21845 2.96332,-4.65161 2.96331,-4.65161 4.97891,-4.65719 4.9789,-4.65718 7.22999,-3.4191 7.22998,-3.4191 8.39037,-0.92681 8.39037,-0.9268 6.31257,0.89397 6.31257,0.89397 4.29706,1.67646 4.29706,1.67646 5.25146,3.43248 5.25145,3.43247 4.13289,4.65179 4.13289,4.6518 2.83317,5.93501 2.83316,5.93501 1.15613,5.56499 1.15613,5.56499 -0.49611,8.71524 -0.49611,8.71525 -3.60601,7.59324 -3.60602,7.59324 -5.77151,5.70905 -5.77152,5.70905 -6.09904,3.21064 -6.09904,3.21065 -4.90096,0.95158 -4.90096,0.95158 z m -2.10406,-18.73402 6.89595,-0.45133 5.28566,-2.58603 5.28566,-2.58603 3.21274,-3.65911 3.21274,-3.65911 2.04834,-4.5508 2.04835,-4.55081 v -7 -7 l -2.24391,-5 -2.24392,-5 -3.19877,-3.33511 -3.19878,-3.33512 -4,-2.32325 -4,-2.32326 -5.69849,-1.15183 -5.69849,-1.15184 -5.52661,1.02165 -5.52662,1.02165 -3.0114,1.55726 -3.01139,1.55725 -3.57772,3.14128 -3.57772,3.14128 -2.64523,5.09002 -2.64523,5.09002 -0.002,8.5 -0.002,8.5 2.31925,4.5 2.31925,4.5 3.1422,3.33532 3.1422,3.33532 3,1.58275 3,1.58275 4,1.3292 4,1.32921 z M 508.5,241 H 499 v -46 -46 l 10.25,0.0392 10.25,0.0392 11.5,19.53454 11.5,19.53454 2.38327,4.4227 2.38328,4.4227 L 561.74882,172.9964 576.23108,149 H 586.11554 596 v 46 46 h -9.48443 -9.48442 L 576.76557,212.75 576.5,184.5 l -4.70735,8 -4.70736,8 -8.79264,13.92469 -8.79265,13.92469 -1.81564,0.24646 -1.81564,0.24646 -2.51758,-3.67115 L 540.83357,221.5 530.41678,204.57953 520,187.65907 V 186.82953 186 h -1 -1 v 27.5 27.5 z m 217.9849,0 H 717 v -46.03621 -46.03621 l 9.60864,0.28621 9.60864,0.28621 8.53008,12.5 8.53008,12.5 11.11128,16 11.11128,16 0.26534,-28.75 0.26533,-28.75 H 785.01534 794 v 46 46 h -8.87982 -8.87982 L 758.92238,215.75 741.60441,190.5 739.0522,186.63831 736.5,182.77662 736.2349,211.88831 735.96979,241 Z M 822,241 h -10 v -46 -46 h 9.97744 9.97744 l 0.27256,18.25 0.27256,18.25 14.5,-18.22675 14.5,-18.22676 12.25848,-0.0232 12.25848,-0.0232 -17.56624,21.08737 -17.56624,21.08737 1.72807,2.66263 1.72808,2.66263 16.32969,21.6118 L 887,239.72359 V 240.3618 241 H 875.09988 863.19976 L 848.47241,221.25 833.74506,201.5 832.87253,201.16667 832,200.83333 V 220.91667 241 Z"
       id="path1" />
  </g>
</svg>
